# ProBuilder 5.0.7
# https://unity3d.com/unity/features/worldbuilding/probuilder
# 29/07/2023 17:29:10

mtllib ./BaseboardCornerInner.mtl
o BaseboardCornerInner

g BaseboardCornerInner
v 2 0.4011658 0
v 0.3 0.4011658 0
v 0.2027093 0.4011658 0
v 2 0.1300338 0.2229867
v 2 0.1111679 0.2814885
v 0.581369 0.1111682 0.2814191
v 0.5224451 0.1300341 0.2232018
v 2 0.1851324 0.1584655
v 0.4501221 0.1111682 0.3001473
v 0.4584055 0.1851324 0.1587362
v 2 0.2604806 0.1194588
v 0.3912082 0.1300341 0.2420109
v 0.3563815 0.1111682 0.3563817
v 0.4190457 0.2604809 0.1195778
v 2 0.3868548 0.1089629
v 0.4091364 0.3868548 0.1088697
v 0.3271567 0.1851324 0.1775518
v 0.2974973 0.1300341 0.2983031
v 0.3001471 0.1111681 0.4501224
v 0.2878046 0.2604809 0.1383547
v 0.2778827 0.3868548 0.127599
v 0.2413129 0.1300341 0.3920784
v 0.2814188 0.1111681 0.5813693
v 0.2334107 0.1851324 0.2338487
v 0.1940808 0.2604809 0.1946239
v 0.1841217 0.3868548 0.1838342
v 0.1771674 0.1851324 0.3276268
v 0.1378748 0.2604809 0.2883854
v 0.1278534 0.3868548 0.2775753
v 0.2226545 0.1300341 0.5233368
v 0.1191864 0.2604809 0.4196393
v 0.1090778 0.3868548 0.4088223
v 0.1089627 0.386855 2
v 0.1194586 0.2604808 2
v 0.1584268 0.1851324 0.4588862
v 0.1584653 0.1851326 2
v 0.2229868 0.130034 2
v 0.2814884 0.111168 2
v 2 0.4011654 0.09341443
v 0.3932037 0.4011657 0.09396933
v 0.261958 0.4011657 0.1128394
v 0.1682212 0.4011657 0.1691751
v 0.1119931 0.4011657 0.2629765
v 0.09327364 0.4011657 0.3942436
v 0.09341431 0.4011656 2
v 2 0.09796534 0.2911028
v 0.5915094 0.09796565 0.2912407
v 0.4602487 0.09796564 0.310035
v 0.3664664 0.09796564 0.3663166
v 0.3101627 0.09796562 0.4600856
v 0.2913373 0.0979656 0.5913419
v 0.2911026 0.09796553 2
v 0.291337 -9.634179E-08 0.5913417
v 0.2911023 -1.629207E-07 2
v 0.3101624 -7.495742E-08 0.4600854
v 0.3664664 -5.968052E-08 0.3663164
v 0.4602486 -5.051107E-08 0.3100348
v 0.5915094 -4.744909E-08 0.2912404
v 2 -3.526024E-07 0.2911025
v 0 0.4011659 2
v 0 0 2
v 2 0 1.010885E-07
v 0 0.4011657 0.2999999
v 0.01875001 0.4011657 0.1687499
v 0 0.4011657 0.1687499
v 0.07500005 0.4011658 0.0749999
v 0 0.4011658 0.0749999
v 0 0.4011658 0

vt 0.1614548 0.02286299
vt 0.2978326 0.02286299
vt 0.321865 0.02286299
vt 0.1990298 0.1091038
vt 0.2053794 0.1231999
vt 0.2888238 0.1231999
vt 0.2932202 0.1091038
vt 0.1904579 0.09083196
vt 0.3172741 0.1231999
vt 0.296318 0.09083196
vt 0.1826158 0.07374749
vt 0.3196015 0.1091038
vt 0.3425971 0.1231999
vt 0.2961376 0.07374749
vt 0.1717618 0.04933497
vt 0.2883577 0.04933497
vt 0.3212743 0.09083196
vt 0.3425529 0.1091038
vt 0.3679394 0.1231999
vt 0.3213408 0.07374749
vt 0.316725 0.04933497
vt 0.3655901 0.1091038
vt 0.3964069 0.1231999
vt 0.3424236 0.09083196
vt 0.3423735 0.07374749
vt 0.3421535 0.04933497
vt 0.3636208 0.09083196
vt 0.3634333 0.07374749
vt 0.3676195 0.04933497
vt 0.3920686 0.1091038
vt 0.3881137 0.07374749
vt 0.3960881 0.04933497
vt 0.5131572 0.04933497
vt 0.5018956 0.07374749
vt 0.3880762 0.09083196
vt 0.4941857 0.09083196
vt 0.4863448 0.1091038
vt 0.4800969 0.1231999
vt 0.1700074 0.04475331
vt 0.289682 0.04475331
vt 0.3174965 0.04475331
vt 0.3423136 0.04475331
vt 0.3671572 0.04475331
vt 0.3950534 0.04475331
vt 0.5148854 0.04475331
vt 0.2070543 0.1266911
vt 0.2885672 0.1266911
vt 0.3171839 0.1266911
vt 0.3425809 0.1266911
vt 0.3680086 0.1266911
vt 0.3966769 0.1266911
vt 0.4784592 0.1266911
vt 0.3896472 0.1456181
vt 0.4704149 0.1456181
vt 0.363887 0.1456181
vt 0.3426895 0.1456181
vt 0.3214901 0.1456181
vt 0.2957495 0.1456181
vt 0.2152403 0.1456181
vt 0.1260425 0.7365826
vt 0.2194568 0.7365823
vt 0.2350052 0.7222717
vt 0.2455011 0.5958974
vt 0.2845078 0.5205493
vt 0.3490292 0.4654507
vt 0.4075308 0.4465847
vt 0.4171451 0.4333822
vt 0.4171448 0.3354165
vt 0.1260425 0.3354167
vt 0.3218637 0.7525545
vt 0.4152781 0.7525548
vt 0.415278 0.3513891
vt 0.1241756 0.3513888
vt 0.1241753 0.4493544
vt 0.1337896 0.462557
vt 0.1922914 0.4814229
vt 0.2568126 0.5365215
vt 0.2958193 0.6118697
vt 0.3063153 0.7382439
vt 0.724066 0.2219956
vt 0.7240661 0.9336082
vt 0.76311 0.8941582
vt 0.6738398 0.2455758
vt 0.6817098 0.9188254
vt 0.6817216 0.2455758
vt 0.5872775 0.1058067
vt 0.6329808 0.132424
vt 0.6818208 0.1120946
vt 0.5882114 0.09925766
vt 0.6827548 0.1055456
vt 0.6432409 0.09767563
vt 0.6661418 0.08106267
vt 0.6111123 0.08106267
vt 0.6111123 0.0826447
vt 0.6032022 0.08739077
vt 0.6559074 0.03152146
vt 0.6166006 0.03152146
vt 0.6166006 0.03784958
vt 0.5897505 0.05050609
vt 0.6292356 0.05837161
vt 0.6685639 0.05362738
vt 0.6190627 0.09051223
vt 0.646589 0.04113496
vt 0.6151436 0.05823854
vt 0.6384149 0.05048742
vt 0.6151436 0.04113496
vt 0.5858047 0.03282426
vt 0.6331151 0.03782336
vt 0.6567352 0.02991433
vt 0.592237 0.04320771
vt 0.6631675 0.04029777
vt 0.6236824 0.03243225
vt 0.5945548 0.05283359
vt 0.6418653 0.04962379
vt 0.5945548 0.04462469
vt 0.5881233 0.04640201
vt 0.627522 0.05426606
vt 0.6354337 0.04319222
vt 0.7658004 0.2179098
vt 0.7658005 0.3613472
vt 0.8049666 0.3613472
vt 0.7656841 0.2180267
vt 0.8050829 0.2258908

vn 0 1 0
vn 5.598443E-05 0.872882 0.4879313
vn -1.481827E-05 0.9517351 0.3069206
vn 0.01943851 0.9568242 0.2900164
vn 0.02580901 0.9052225 0.4241535
vn 0.0001326271 0.6215873 0.7833449
vn 0.06533572 0.966715 0.2473727
vn 0.05996563 0.6787087 0.7319553
vn 9.509832E-05 0.2770129 0.9608662
vn 0.1374038 0.8927194 0.429153
vn 0.1571974 0.9749656 0.1572612
vn 0.06743058 0.2937308 0.9535069
vn 8.341015E-06 0.0835982 0.9964995
vn 0.07055343 0.08980857 0.9934569
vn 0.231758 0.704845 0.6704341
vn 0.2651041 0.9271369 0.2648339
vn 0.2335883 0.9691871 0.07818536
vn 0.3124402 0.339513 0.8871933
vn 0.3324677 0.1059607 0.9371433
vn 0.3874886 0.9125256 0.1309562
vn 0.2885665 0.9572662 0.01925553
vn 0.476485 0.7390779 0.4761574
vn 0.6577024 0.3678416 0.6573584
vn 0.7023767 0.1154504 0.7023804
vn 0.6707798 0.704646 0.2313622
vn 0.8878192 0.3381457 0.3121449
vn 0.9374217 0.1029655 0.3326238
vn 0.4652289 0.8846297 0.03150146
vn 0.9539282 0.292429 0.06712905
vn 0.9938203 0.08554961 0.07072777
vn 0.9966933 0.08125539 -4.979831E-05
vn 0.9608139 0.277194 -0.0001321505
vn 0.762958 0.6442884 0.05279734
vn 0.7836439 0.6212103 -5.26925E-05
vn 0.4873578 0.8732024 -9.585476E-05
vn 0.3069215 0.9517348 -1.500406E-05
vn 9.98219E-05 0.7286129 0.6849257
vn -3.967697E-05 0.7357889 0.677211
vn 0.04560376 0.7479391 0.6621989
vn 0.04594807 0.7438239 0.6667944
vn 0.1929209 0.8009049 0.5668622
vn 0.193534 0.8000445 0.5678673
vn 0.3895546 0.8340236 0.3907068
vn 0.3902088 0.8335291 0.3911091
vn 0.5551299 0.8097582 0.1900588
vn 0.5558011 0.8092811 0.1901296
vn 0.6489363 0.7595426 0.04446113
vn 0.6477393 0.7605666 0.0444104
vn 0.6742369 0.7385151 -4.948887E-06
vn 0.6772119 0.735788 4.886375E-05
vn 2.005405E-05 0.5927694 0.8053722
vn 7.925266E-05 0.5886705 0.8083731
vn 0.05424909 0.6204745 0.7823481
vn 0.05406457 0.6229753 0.780371
vn 0.2353378 0.6912564 0.6832135
vn 0.2350893 0.6918561 0.6826918
vn 0.4821505 0.7311899 0.482589
vn 0.6805106 0.6940767 0.2348677
vn 0.6815967 0.6929832 0.2349474
vn 0.7800101 0.6234344 0.0539801
vn 0.778381 0.6254745 0.05389358
vn 0.803975 0.594663 4.777743E-05
vn 0.8083748 0.588668 0.0001347266
vn 0.9974585 -3.175184E-06 0.07124934
vn 1 -3.042118E-06 0.0001666288
vn 0.9422191 -3.568698E-06 0.3349972
vn 0.7070229 -2.178E-06 0.7071907
vn 0.3347747 -2.474412E-06 0.9422982
vn 0.07109713 -2.85122E-06 0.9974694
vn 9.790291E-05 -3.042118E-06 1

usemtl New_Material
f 9/9/7 6/6/4 7/7/5
f 17/17/15 12/12/10 10/10/8
f 3/3/1 2/2/1 1/1/1
f 61/69/70 54/68/70 52/67/70
f 61/69/70 52/67/70 38/66/70
f 61/69/70 38/66/70 37/65/70
f 61/69/70 37/65/70 36/64/70
f 36/64/70 60/60/70 61/69/70
f 34/63/70 60/60/70 36/64/70
f 60/60/70 34/63/70 33/62/70
f 45/61/70 60/60/70 33/62/70
f 15/79/65 1/71/65 39/70/65
f 11/78/65 1/71/65 15/79/65
f 1/71/65 11/78/65 8/77/65
f 8/77/65 62/72/65 1/71/65
f 8/77/65 4/76/65 62/72/65
f 4/76/65 5/75/65 62/72/65
f 5/75/65 46/74/65 62/72/65
f 46/74/65 59/73/65 62/72/65
f 44/82/1 63/81/1 60/80/1
f 45/85/1 44/84/1 60/83/1
f 44/88/1 43/87/1 64/86/1
f 63/91/1 44/90/1 64/89/1
f 64/94/1 65/93/1 63/92/1
f 64/94/1 66/95/1 65/93/1
f 66/98/1 67/97/1 65/96/1
f 43/101/1 42/100/1 66/99/1
f 64/94/1 43/102/1 66/95/1
f 66/105/1 3/104/1 67/103/1
f 3/104/1 68/106/1 67/103/1
f 42/109/1 41/108/1 3/107/1
f 66/112/1 42/111/1 3/110/1
f 3/115/1 41/114/1 2/113/1
f 41/118/1 40/117/1 2/116/1
f 39/121/1 1/120/1 2/119/1
f 40/123/1 39/121/1 2/122/1
f 6/6/4 5/5/3 4/4/2
f 4/4/2 7/7/5 6/6/4
f 7/7/5 4/4/2 8/8/6
f 8/8/6 10/10/8 7/7/5
f 10/10/8 8/8/6 11/11/9
f 11/11/9 14/14/12 10/10/8
f 12/12/10 9/9/7 7/7/5
f 7/7/5 10/10/8 12/12/10
f 13/13/11 9/9/7 12/12/10
f 12/12/10 18/18/16 13/13/11
f 14/14/12 11/11/9 15/15/13
f 15/15/13 16/16/14 14/14/12
f 17/17/15 10/10/8 14/14/12
f 14/14/12 20/20/18 17/17/15
f 18/18/16 12/12/10 17/17/15
f 17/17/15 24/24/22 18/18/16
f 19/19/17 13/13/11 18/18/16
f 18/18/16 22/22/20 19/19/17
f 20/20/18 14/14/12 16/16/14
f 16/16/14 21/21/19 20/20/18
f 23/23/21 19/19/17 22/22/20
f 22/22/20 30/30/28 23/23/21
f 24/24/22 17/17/15 20/20/18
f 20/20/18 25/25/23 24/24/22
f 22/22/20 18/18/16 24/24/22
f 24/24/22 27/27/25 22/22/20
f 25/25/23 20/20/18 21/21/19
f 21/21/19 26/26/24 25/25/23
f 27/27/25 24/24/22 25/25/23
f 25/25/23 28/28/26 27/27/25
f 28/28/26 25/25/23 26/26/24
f 26/26/24 29/29/27 28/28/26
f 30/30/28 22/22/20 27/27/25
f 27/27/25 35/35/33 30/30/28
f 31/31/29 28/28/26 29/29/27
f 29/29/27 32/32/30 31/31/29
f 31/31/29 32/32/30 33/33/31
f 33/33/31 34/34/32 31/31/29
f 35/35/33 27/27/25 28/28/26
f 28/28/26 31/31/29 35/35/33
f 35/35/33 31/31/29 34/34/32
f 34/34/32 36/36/34 35/35/33
f 30/30/28 35/35/33 36/36/34
f 36/36/34 37/37/35 30/30/28
f 23/23/21 30/30/28 37/37/35
f 37/37/35 38/38/36 23/23/21
f 16/16/39 15/15/38 39/39/37
f 39/39/37 40/40/40 16/16/39
f 21/21/41 16/16/39 40/40/40
f 40/40/40 41/41/42 21/21/41
f 26/26/43 21/21/41 41/41/42
f 41/41/42 42/42/44 26/26/43
f 29/29/45 26/26/43 42/42/44
f 42/42/44 43/43/46 29/29/45
f 32/32/47 29/29/45 43/43/46
f 43/43/46 44/44/48 32/32/47
f 32/32/47 44/44/48 45/45/49
f 45/45/49 33/33/50 32/32/47
f 47/47/53 46/46/52 5/5/51
f 5/5/51 6/6/54 47/47/53
f 48/48/55 47/47/53 6/6/54
f 6/6/54 9/9/56 48/48/55
f 49/49/57 48/48/55 9/9/56
f 9/9/56 13/13/57 49/49/57
f 50/50/58 49/49/57 13/13/57
f 13/13/57 19/19/59 50/50/58
f 51/51/60 50/50/58 19/19/59
f 19/19/59 23/23/61 51/51/60
f 51/51/60 23/23/61 38/38/62
f 38/38/62 52/52/63 51/51/60
f 52/52/65 54/54/65 53/53/64
f 53/53/64 51/51/64 52/52/65
f 50/50/66 51/51/64 53/53/64
f 53/53/64 55/55/66 50/50/66
f 49/49/67 50/50/66 55/55/66
f 55/55/66 56/56/67 49/49/67
f 48/48/68 49/49/67 56/56/67
f 56/56/67 57/57/68 48/48/68
f 47/47/69 48/48/68 57/57/68
f 57/57/68 58/58/69 47/47/69
f 47/47/69 58/58/69 59/59/70
f 59/59/70 46/46/70 47/47/69

g Light
v 2 0.0862854 0.2819625
v 2 0.07685302 0.314042
v 0.5862039 0.07685302 0.314042
v 0.5862039 0.0862854 0.2819625
v 2 0.02374756 0.3272976
v 0.5862039 0.02374756 0.3272976
v 0.3204694 2.637098E-15 0.5843722
v 0.3204694 1.629206E-07 2
v 0.3272977 0.02374803 2
v 0.3272974 0.02374756 0.5843722
v 0.2819623 0.08628587 2
v 0.2819623 0.0862854 0.5843722
v 0.3140417 0.07685302 0.5843722
v 0.3140421 0.07685349 2
v 2 -3.057919E-07 0.3204696
v 0.5862039 -3.051758E-07 0.3204696
v 0.4556329 0.0862854 0.3059302
v 0.4636527 0.07685302 0.3299898
v 0.3789777 0.07685302 0.3807766
v 0.3629382 0.0862854 0.3647368
v 0.3061472 0.0862854 0.456965
v 0.3302066 0.07685302 0.4649848
v 0.4669666 0.02374756 0.3399315
v 0.3856055 0.02374756 0.3874043
v 0.3401483 0.02374756 0.4682987
v 0.3350275 -1.433486E-15 0.4665916
v 0.3821918 2.653033E-15 0.3839902
v 0.4652597 -9.28133E-16 0.3348104

vt 0.2110926 0.05552543
vt 0.2110926 0.04277011
vt 0.1534621 0.04277118
vt 0.1534621 0.05552658
vt 0.2110927 0.03938038
vt 0.1534622 0.03938142
vt 0.7297658 0.01903621
vt 0.6721359 0.01903721
vt 0.6721358 0.03936455
vt 0.7297657 0.03936353
vt 0.6721351 0.05550642
vt 0.7297652 0.05550528
vt 0.7297652 0.04275158
vt 0.6721351 0.04275263
vt 0.2110928 0.01905247
vt 0.1534622 0.01905352
vt 0.297538 0.03937695
vt 0.2975378 0.05552126
vt 0.4416136 0.05551593
vt 0.4416139 0.03937248
vt 0.5856898 0.039368
vt 0.5856894 0.05551061
vt 0.2975381 0.01904919
vt 0.441614 0.01904487
vt 0.5856899 0.01904054
vt 0.3839833 0.02497519
vt 0.4992439 0.03090066
vt 0.2687227 0.01904973
vt 0.6145045 0.03682612

vn 0 0.9593881 0.2820897
vn 0 0.6923335 0.7215776
vn 0.04992699 0.6854089 0.7264447
vn 0.0258643 0.9590671 0.2819954
vn 0 -0.0176792 0.9998437
vn 0.05746004 -0.01680144 0.9982064
vn 0.9593835 -0.2758486 0.05908385
vn 0.9610608 -0.2763372 3.180288E-08
vn 0.9998437 -0.01768219 -1.677279E-07
vn 0.9980625 -0.01680695 0.05990615
vn 0.2820889 0.9593883 -3.53515E-07
vn 0.2819895 0.9590446 0.0267448
vn 0.72627 0.6854497 0.05187102
vn 0.7215769 0.6923343 -3.999196E-07
vn -6.020575E-11 -0.2763282 0.9610634
vn 0.05670308 -0.2758836 0.9595171
vn 0.1230345 0.9399466 0.3183754
vn 0.2441696 0.6547646 0.7153073
vn 0.5477835 0.6393399 0.5396087
vn 0.2733977 0.9233488 0.2695937
vn 0.3195534 0.9397325 0.1216078
vn 0.7170487 0.65424 0.2404398
vn 0.3115565 -0.01436731 0.950119
vn 0.7126284 -0.01370249 0.7014079
vn 0.9519014 -0.01436143 0.3060677
vn 0.9247376 -0.2298419 0.3033696
vn 0.698377 -0.199221 0.687445
vn 0.3085345 -0.2303251 0.9229068

usemtl 07_-_Default
f 72/127/74 71/126/73 70/125/72 69/124/71
f 71/126/73 74/129/76 73/128/75 70/125/72
f 78/133/80 77/132/79 76/131/78 75/130/77
f 82/137/84 81/136/83 80/135/82 79/134/81
f 77/132/79 78/133/80 81/136/83 82/137/84
f 73/128/75 74/129/76 84/139/86 83/138/85
f 86/141/88 71/127/73 72/129/74 85/140/87
f 88/143/90 87/142/89 86/141/88 85/140/87
f 90/145/92 87/142/89 88/143/90 89/144/91
f 80/133/82 81/135/83 90/145/92 89/144/91
f 91/146/93 74/139/76 71/127/73 86/141/88
f 87/142/89 92/147/94 91/146/93 86/141/88
f 93/148/95 92/147/94 87/142/89 90/145/92
f 81/135/83 78/130/80 93/148/95 90/145/92
f 95/150/97 92/147/94 93/148/95 94/149/96
f 75/151/77 94/149/96 93/148/95 78/130/80
f 91/146/93 96/152/98 84/136/86 74/139/76
f 95/150/97 96/152/98 91/146/93 92/147/94

