# ProBuilder 5.0.7
# https://unity3d.com/unity/features/worldbuilding/probuilder
# 29/07/2023 17:35:21

mtllib ./BaseboardCornerOuter.mtl
o BaseboardCornerOuter

g BaseboardCornerOuter
v -0.001014411 -3.526114E-07 0.291158
v -2 -3.526024E-07 0.2911025
v -2 0.09796534 0.2911028
v -0.001014113 0.09796534 0.2911582
v 0.1302371 0.09796534 0.2724155
v 0.1302367 -3.495579E-07 0.2724153
v 0.2239904 0.09796535 0.2161706
v 0.2239902 -3.403944E-07 0.2161705
v -0.3 0.4011658 1.629207E-07
v -2 0.4011654 0.09341443
v -2 0.4011658 1.629207E-07
v -0.1986365 0.4011654 0.09348564
v -0.1686008 0.4011658 -0.01874924
v -0.06738621 0.4011655 0.0747473
v -0.07440311 0.4011658 -0.07499746
v 0.02636445 0.4011655 0.01850564
v -0.1829642 0.3868548 0.1086947
v -2 0.2604806 0.1194588
v -2 0.3868548 0.1089629
v -0.1718079 0.2604806 0.1192385
v -0.05171603 0.3868549 0.08990165
v -2 0.1851324 0.1584655
v -0.04057068 0.2604806 0.1004536
v 0.04202819 0.3868549 0.03362089
v 0.05314028 0.2604806 0.04417871
v -0.1338879 0.1851324 0.1583902
v -0.002632797 0.1851324 0.1396288
v 0.09113252 0.1851324 0.08337065
v -0.06931764 0.1300338 0.222845
v -2 0.1300338 0.2229867
v -2 0.1111679 0.2814885
v -0.0105356 0.1111679 0.28162
v 0.06193626 0.1300338 0.2040751
v 0.1556985 0.1300338 0.1478108
v 0.1207141 0.1111679 0.2628874
v 0.2144635 0.1111679 0.2066499
v 0.2990627 -4.474309E-07 -2
v 0.2990038 0.09796539 -0.008825184
v 0.2990631 0.09796525 -2
v 0.2990036 -3.037379E-07 -0.008825371
v 0.2802457 -3.251211E-07 0.1224236
v 0.2802459 0.09796537 0.1224238
v 0.007960439 0.4011656 -2
v 0.1013747 0.4011653 -2
v 0.1013665 0.4011655 -0.2064877
v 0.002388 0.4011658 -0.2999903
v 0.08261538 0.4011655 -0.07523934
v -0.01740664 0.4011658 -0.1687445
v 0.2309469 0.1300337 -2
v 0.2894489 0.1111678 -2
v 0.2894608 0.1111679 -0.01834018
v 0.2307473 0.1300339 -0.07720061
v 0.2707123 0.1111679 0.1129073
v 0.1664257 0.1851323 -2
v 0.211969 0.1300339 0.05405224
v 0.1661932 0.1851325 -0.1416359
v 0.1474078 0.1851324 -0.01038424
v 0.1279849 0.2604807 -0.1808412
v 0.1274191 0.2604805 -2
v 0.1169232 0.3868547 -2
v 0.1170052 0.3868549 -0.1914037
v 0.1093255 0.2604806 -0.04958624
v 0.09826875 0.3868549 -0.06014755
v 0.007960439 0 -2
v -2 0 1.099714E-07

vt 0.705224 0.02351837
vt 0.4341901 0.02351837
vt 0.4343774 0.04387534
vt 0.7013891 0.04387534
vt 0.733759 0.04387534
vt 0.7446155 0.02351837
vt 0.7571028 0.04387534
vt 0.7709836 0.02296495
vt 0.5936213 0.1459403
vt 0.4086557 0.1237296
vt 0.4080938 0.1459403
vt 0.6224973 0.1237296
vt 0.6259789 0.1459403
vt 0.6543359 0.1237296
vt 0.6478626 0.1458339
vt 0.6753671 0.1237296
vt 0.6293265 0.1203073
vt 0.4183899 0.09574997
vt 0.4125026 0.1203073
vt 0.6410647 0.09574997
vt 0.6591405 0.1203073
vt 0.4240317 0.07856925
vt 0.6764978 0.09574997
vt 0.6793553 0.1203073
vt 0.7021363 0.09574997
vt 0.656791 0.07856925
vt 0.6925604 0.07856925
vt 0.7190069 0.07856925
vt 0.6781721 0.0599137
vt 0.4283771 0.0599137
vt 0.4315872 0.04628016
vt 0.6968958 0.04628016
vt 0.7131589 0.0599137
vt 0.7387748 0.0599137
vt 0.7304696 0.04628016
vt 0.7543073 0.04628016
vt 0.4356915 0.02296495
vt 0.6976462 0.04172086
vt 0.4342542 0.04172086
vt 0.7030408 0.02296495
vt 0.7422284 0.02296495
vt 0.7298989 0.04172086
vt 0.4089229 0.121676
vt 0.6194199 0.121676
vt 0.5928782 0.1458339
vt 0.6511458 0.121676
vt 0.6245546 0.1458339
vt 0.4283466 0.05773479
vt 0.4307411 0.04413298
vt 0.692427 0.04413298
vt 0.6745943 0.05773479
vt 0.7266257 0.04413298
vt 0.4240633 0.07635964
vt 0.7094351 0.05773479
vt 0.6534032 0.07635964
vt 0.6890243 0.07635964
vt 0.637468 0.09334388
vt 0.4185031 0.09334388
vt 0.412706 0.1180231
vt 0.6260493 0.1180231
vt 0.6727856 0.09334388
vt 0.655826 0.1180231
vt 0.2455918 0.6705586
vt 0.3390061 0.6705588
vt 0.3390061 0.2693932
vt 0.04790378 0.2693928
vt 0.04790342 0.3673585
vt 0.05751765 0.380561
vt 0.1160196 0.3994269
vt 0.1805408 0.4545255
vt 0.2195474 0.5298737
vt 0.2300433 0.656248
vt 0.05078135 0.670697
vt 0.1441956 0.6706967
vt 0.1597441 0.6563861
vt 0.17024 0.5300119
vt 0.2092467 0.4546637
vt 0.2737679 0.3995651
vt 0.3322698 0.3806992
vt 0.341884 0.3674966
vt 0.3418837 0.269531
vt 0.05078136 0.2695313

vn 0.07084748 -2.817939E-06 0.9974872
vn -2.774514E-05 -3.34633E-06 1
vn 0.3345261 -3.282869E-06 0.9423864
vn 0.7070664 -3.240061E-06 0.7071472
vn 2.166303E-07 1 3.272483E-06
vn 0.07079765 0.08904373 0.9935084
vn 0.0001226595 0.2767178 0.9609513
vn 0.0001470672 0.08276933 0.9965687
vn 0.06749685 0.2929088 0.953755
vn 0.332687 0.1075555 0.9368837
vn 5.518833E-05 0.6218578 0.7831302
vn 0.3127833 0.3382183 0.8875669
vn 0.7021189 0.1203938 0.701808
vn 0.65832 0.3662113 0.6576504
vn 0.05297779 0.644495 0.7627709
vn 0.2025679 0.7250639 0.6582162
vn 0.4781087 0.7368829 0.4779285
vn 0.03746596 0.8622441 0.5051054
vn 3.578395E-05 0.8730507 0.4876293
vn 1.165635E-06 0.9519404 0.3062834
vn 0.02572902 0.9590532 0.2820549
vn 0.1243884 0.9308978 0.3434486
vn 0.2640263 0.927663 0.2640673
vn 0.07796235 0.9693428 0.2330158
vn 0.1564418 0.9752167 0.1564557
vn 0.04527633 0.751938 0.6576772
vn 9.993843E-05 0.7357889 0.677211
vn 3.642426E-05 0.7320444 0.6812569
vn 0.04514546 0.7503477 0.6595001
vn 0.1913415 0.8049263 0.5616778
vn 0.1915722 0.8046053 0.562059
vn 0.3881203 0.8356625 0.3886267
vn 0.3883464 0.8354904 0.388771
vn 0.05481979 0.6110679 0.7896777
vn -2.239226E-05 0.5886705 0.8083731
vn -3.797144E-05 0.5871311 0.8094919
vn 0.05478998 0.6103971 0.7901983
vn 0.2404047 0.6761557 0.6964331
vn 0.24045 0.6760486 0.6965215
vn 0.4949374 0.7141588 0.4949892
vn 0.4949326 0.7141541 0.4950008
vn 1 -3.042154E-06 2.972487E-05
vn 0.997481 -2.870099E-06 0.07093397
vn 0.9423481 -2.972303E-06 0.3346344
vn 0.4873927 0.8731829 4.192522E-05
vn 0.3069198 0.9517354 -1.914303E-06
vn 0.2884988 0.9572852 0.0193265
vn 0.4642838 0.885122 0.03161575
vn 0.2331534 0.969304 0.07803293
vn 0.7845381 0.6200806 -4.141752E-06
vn 0.3860611 0.9131573 0.1307695
vn 0.7653356 0.641427 0.05322498
vn 0.6733915 0.7017677 0.232521
vn 0.9544454 0.2907417 0.06710579
vn 0.9609782 0.2766241 -0.0002988961
vn 0.9964098 0.08466086 -0.0001775664
vn 0.9932421 0.09232368 0.07033143
vn 0.8885101 0.3362609 0.3122152
vn 0.9368188 0.1098128 0.332132
vn 0.6761572 0.7367573 -1.382748E-05
vn 0.6511087 0.7576716 0.04462234
vn 0.6772105 0.7357893 3.032477E-06
vn 0.6506572 0.7580602 0.04460733
vn 0.5564419 0.8088675 0.1900152
vn 0.5562457 0.809008 0.1899917
vn 0.809409 0.5872454 9.583973E-06
vn 0.7895573 0.6112182 0.05487879
vn 0.8083749 0.588668 -4.904934E-06
vn 0.7900279 0.6106088 0.05489107
vn 0.6962976 0.6762712 0.2404725
vn 0 0 -1
vn -1 0 0

usemtl New_Material
f 13/13/5 9/9/5 12/12/5
f 14/14/5 13/13/5 12/12/5
f 27/27/16 26/26/15 29/29/18
f 35/35/24 33/33/22 32/32/21
f 60/72/71 43/64/71 44/63/71
f 59/71/71 43/64/71 60/72/71
f 54/70/71 43/64/71 59/71/71
f 54/70/71 64/65/71 43/64/71
f 54/70/71 49/69/71 64/65/71
f 49/69/71 50/68/71 64/65/71
f 50/68/71 39/67/71 64/65/71
f 39/67/71 37/66/71 64/65/71
f 65/82/72 2/81/72 3/80/72
f 31/79/72 65/82/72 3/80/72
f 65/82/72 31/79/72 30/78/72
f 65/82/72 30/78/72 22/77/72
f 11/73/72 65/82/72 22/77/72
f 18/76/72 11/73/72 22/77/72
f 18/76/72 19/75/72 11/73/72
f 10/74/72 11/73/72 19/75/72
f 3/3/2 2/2/2 1/1/1
f 1/1/1 4/4/1 3/3/2
f 5/5/3 4/4/1 1/1/1
f 1/1/1 6/6/3 5/5/3
f 7/7/4 5/5/3 6/6/3
f 6/6/3 8/8/4 7/7/4
f 9/9/5 11/11/5 10/10/5
f 10/10/5 12/12/5 9/9/5
f 15/15/5 13/13/5 14/14/5
f 14/14/5 16/16/5 15/15/5
f 17/17/6 19/19/8 18/18/7
f 18/18/7 20/20/9 17/17/6
f 21/21/10 17/17/6 20/20/9
f 20/20/9 23/23/12 21/21/10
f 20/20/9 18/18/7 22/22/11
f 22/22/11 26/26/15 20/20/9
f 24/24/13 21/21/10 23/23/12
f 23/23/12 25/25/14 24/24/13
f 23/23/12 20/20/9 26/26/15
f 26/26/15 27/27/16 23/23/12
f 25/25/14 23/23/12 27/27/16
f 27/27/16 28/28/17 25/25/14
f 29/29/18 26/26/15 22/22/11
f 22/22/11 30/30/19 29/29/18
f 29/29/18 30/30/19 31/31/20
f 31/31/20 32/32/21 29/29/18
f 28/28/17 27/27/16 33/33/22
f 33/33/22 34/34/23 28/28/17
f 33/33/22 27/27/16 29/29/18
f 29/29/18 32/32/21 33/33/22
f 34/34/23 33/33/22 35/35/24
f 35/35/24 36/36/25 34/34/23
f 10/10/28 19/19/27 17/17/26
f 17/17/26 12/12/29 10/10/28
f 14/14/30 12/12/29 17/17/26
f 17/17/26 21/21/31 14/14/30
f 16/16/32 14/14/30 21/21/31
f 21/21/31 24/24/33 16/16/32
f 31/31/36 3/3/35 4/4/34
f 4/4/34 32/32/37 31/31/36
f 35/35/38 32/32/37 4/4/34
f 4/4/34 5/5/39 35/35/38
f 36/36/40 35/35/38 5/5/39
f 5/5/39 7/7/41 36/36/40
f 37/37/42 39/39/42 38/38/43
f 38/38/43 40/40/43 37/37/42
f 41/41/44 40/40/43 38/38/43
f 38/38/43 42/42/44 41/41/44
f 8/8/4 41/41/44 42/42/44
f 42/42/44 7/7/4 8/8/4
f 45/44/5 44/43/5 43/11/5
f 43/11/5 46/45/5 45/44/5
f 47/46/5 45/44/5 46/45/5
f 46/45/5 48/47/5 47/46/5
f 16/16/5 47/46/5 48/47/5
f 48/47/5 15/15/5 16/16/5
f 51/50/47 50/49/46 49/48/45
f 49/48/45 52/51/48 51/50/47
f 53/52/49 51/50/47 52/51/48
f 52/51/48 55/54/51 53/52/49
f 52/51/48 49/48/45 54/53/50
f 54/53/50 56/55/52 52/51/48
f 36/36/25 53/52/49 55/54/51
f 55/54/51 34/34/23 36/36/25
f 55/54/51 52/51/48 56/55/52
f 56/55/52 57/56/53 55/54/51
f 34/34/23 55/54/51 57/56/53
f 57/56/53 28/28/17 34/34/23
f 58/57/54 56/55/52 54/53/50
f 54/53/50 59/58/55 58/57/54
f 57/56/53 56/55/52 58/57/54
f 58/57/54 62/61/58 57/56/53
f 58/57/54 59/58/55 60/59/56
f 60/59/56 61/60/57 58/57/54
f 28/28/17 57/56/53 62/61/58
f 62/61/58 25/25/14 28/28/17
f 62/61/58 58/57/54 61/60/57
f 61/60/57 63/62/59 62/61/58
f 25/25/14 62/61/58 63/62/59
f 63/62/59 24/24/13 25/25/14
f 60/59/60 44/43/62 45/44/61
f 45/44/61 61/60/63 60/59/60
f 63/62/64 61/60/63 45/44/61
f 45/44/61 47/46/65 63/62/64
f 24/24/33 63/62/64 47/46/65
f 47/46/65 16/16/32 24/24/33
f 39/39/66 50/49/68 51/50/67
f 51/50/67 38/38/69 39/39/66
f 42/42/70 38/38/69 51/50/67
f 51/50/67 53/52/70 42/42/70
f 7/7/41 42/42/70 53/52/70
f 53/52/70 36/36/40 7/7/41

g Light
v 0 -3.573869E-07 0.3204696
v -2 -3.573869E-07 0.3204696
v -2 0.0237475 0.3272976
v 0 0.0237475 0.3272976
v 0 0.08628535 0.2819625
v 0 0.07685297 0.314042
v -2 0.07685297 0.314042
v -2 0.08628535 0.2819625
v 0.3204696 -4.474309E-07 -2
v 0.3204696 -3.051758E-07 1.215895E-07
v 0.3272977 0.02374756 1.254585E-07
v 0.3272977 0.02374741 -2
v 0.2819625 0.08628526 -2
v 0.314042 0.07685289 -2
v 0.314042 0.07685302 1.341105E-07
v 0.2819625 0.0862854 1.356472E-07
v 0.3005801 0.076853 0.1266655
v 0.2765206 0.08628538 0.1186456
v 0.2190133 0.08628536 0.214276
v 0.2350528 0.07685298 0.2303157
v 0.1384743 0.07685298 0.2893839
v 0.130455 0.08628535 0.2653242
v 0.1417886 0.02374751 0.2993256
v 0.1400814 -3.531078E-07 0.2942045
v 0.2382668 -3.432226E-07 0.2335295
v 0.2416806 0.02374752 0.2369435
v 0.3105218 0.02374754 0.1299794
v 0.305401 -3.26074E-07 0.1282724

vt 0.7873957 0.01903522
vt 0.6721359 0.01903721
vt 0.6721358 0.03936455
vt 0.7873955 0.03936252
vt 0.7873952 0.05550415
vt 0.7873952 0.04275054
vt 0.6721351 0.04275263
vt 0.6721351 0.05550642
vt 0.2110928 0.01905247
vt 0.09583165 0.01905457
vt 0.09583163 0.03938247
vt 0.2110927 0.03938038
vt 0.2110926 0.05552543
vt 0.2110926 0.04277011
vt 0.09583154 0.04277225
vt 0.09583153 0.05552774
vt 0.2687225 0.04276682
vt 0.09583153 0.05233887
vt 0.09583154 0.04915
vt 0.4416134 0.04276139
vt 0.6145043 0.04275597
vt 0.09583154 0.04596113
vt 0.5280592 0.04191009
vt 0.6145046 0.01904006
vt 0.4416136 0.01904489
vt 0.3839834 0.04106755
vt 0.2399075 0.04022501
vt 0.2687227 0.01904973

vn 0.09193067 -0.262144 0.96064
vn 0 -0.2763284 0.9610633
vn 0 -0.01767935 0.9998437
vn 0.09728169 -0.01761751 0.995101
vn 0.0237728 0.9537609 0.2996248
vn 0.06670402 0.6880556 0.7225856
vn 0 0.6923334 0.7215778
vn 0 0.959388 0.2820899
vn 0.9610633 -0.2763284 1.973528E-08
vn 0.9633545 -0.2615782 0.05937012
vn 0.9977847 -0.01765184 0.06414168
vn 0.9998437 -0.01767857 1.55968E-09
vn 0.2820902 0.9593879 -6.611896E-08
vn 0.7215773 0.6923339 -4.64246E-08
vn 0.7248535 0.687641 0.04168149
vn 0.3017945 0.953302 0.01163002
vn 0.7130429 0.656053 0.2473143
vn 0.333963 0.9372232 0.1004063
vn 0.2558289 0.9310776 0.2600886
vn 0.5430222 0.6336541 0.5510077
vn 0.2676315 0.6535243 0.7080109
vn 0.1113085 0.9372727 0.3303488
vn 0.3634802 -0.01479854 0.9314844
vn 0.3521974 -0.2214175 0.9093577
vn 0.6864964 -0.2100932 0.6961204
vn 0.7022078 -0.01295512 0.7118542
vn 0.9408591 -0.01494881 0.3384681
vn 0.9185324 -0.2216017 0.3274001

usemtl 07_-_Default
f 69/86/76 68/85/75 67/84/74 66/83/73
f 73/90/80 72/89/79 71/88/78 70/87/77
f 71/88/78 72/89/79 68/85/75 69/86/76
f 77/94/84 76/93/83 75/92/82 74/91/81
f 81/98/88 80/97/87 79/96/86 78/95/85
f 79/96/86 80/97/87 76/93/83 77/94/84
f 83/100/90 82/99/89 80/97/87 81/98/88
f 85/102/92 82/99/89 83/100/90 84/101/91
f 87/104/94 86/103/93 85/102/92 84/101/91
f 71/88/78 86/103/93 87/104/94 70/97/77
f 69/89/76 66/83/73 89/106/96 88/105/95
f 86/103/93 71/88/78 69/89/76 88/105/95
f 91/108/98 88/105/95 89/106/96 90/107/97
f 91/108/98 85/102/92 86/103/93 88/105/95
f 93/110/100 92/109/99 91/108/98 90/107/97
f 82/99/89 85/102/92 91/108/98 92/109/99
f 76/93/83 92/109/99 93/110/100 75/92/82
f 76/93/83 80/97/87 82/99/89 92/109/99

